<svg xmlns="http://www.w3.org/2000/svg" version="1.1" xmlns:xlink="http://www.w3.org/1999/xlink" xmlns:svgjs="http://svgjs.dev/svgjs" width="1920" height="1080" preserveAspectRatio="none" viewBox="0 0 1920 1080"><g mask="url(&quot;#SvgjsMask1033&quot;)" fill="none"><rect width="1920" height="1080" x="0" y="0" fill="#0e2a47"></rect><path d="M21 1080L1101 0L1293 0L213 1080z" fill="url(&quot;#SvgjsLinearGradient1034&quot;)"></path><path d="M756.6 1080L1836.6 0L2696.1 0L1616.1 1080z" fill="url(&quot;#SvgjsLinearGradient1034&quot;)"></path><path d="M1889 1080L809 0L-58 0L1022 1080z" fill="url(&quot;#SvgjsLinearGradient1035&quot;)"></path><path d="M1275.4 1080L195.4000000000001 0L-583.0999999999999 0L496.9000000000001 1080z" fill="url(&quot;#SvgjsLinearGradient1035&quot;)"></path><path d="M853.2536231037323 1080L1920 13.253623103732252L1920 1080z" fill="url(&quot;#SvgjsLinearGradient1034&quot;)"></path><path d="M0 1080L1066.7463768962677 1080L 0 13.253623103732252z" fill="url(&quot;#SvgjsLinearGradient1035&quot;)"></path></g><defs><mask id="SvgjsMask1033"><rect width="1920" height="1080" fill="#ffffff"></rect></mask><linearGradient x1="0%" y1="100%" x2="100%" y2="0%" id="SvgjsLinearGradient1034"><stop stop-color="rgba(15, 70, 185, 0.2)" offset="0"></stop><stop stop-opacity="0" stop-color="rgba(15, 70, 185, 0.2)" offset="0.66"></stop></linearGradient><linearGradient x1="100%" y1="100%" x2="0%" y2="0%" id="SvgjsLinearGradient1035"><stop stop-color="rgba(15, 70, 185, 0.2)" offset="0"></stop><stop stop-opacity="0" stop-color="rgba(15, 70, 185, 0.2)" offset="0.66"></stop></linearGradient></defs></svg>